<?xml version="1.0" encoding="UTF-8"?>
<svg version="1.1" xmlns="http://www.w3.org/2000/svg" width="2000" height="2000">
<path d="M0 0 C660 0 1320 0 2000 0 C2000 660 2000 1320 2000 2000 C1340 2000 680 2000 0 2000 C0 1340 0 680 0 0 Z " fill="#111111" transform="translate(0,0)"/>
<path d="M0 0 C3.17745381 1.03584564 6.36574242 2.03273421 9.55664062 3.02636719 C99.12995041 31.08457601 181.63959977 78.53678401 271.38476562 163.31542969 C271.99935638 163.92734161 272.61394714 164.53925354 273.24716187 165.16970825 C279.68211207 171.58338518 286.00913681 178.00304217 291.88476562 184.94042969 C293.3392208 186.54811341 294.79697457 188.15282683 296.25976562 189.75292969 C300.99048065 195.00218852 305.45560256 200.43601964 309.88476562 205.94042969 C310.79851004 207.0617827 311.71258702 208.1828648 312.62695312 209.30371094 C333.15893632 234.5754397 351.70137611 261.68183776 367.88476562 289.94042969 C368.29275391 290.64893066 368.70074219 291.35743164 369.12109375 292.08740234 C372.12521794 297.32774257 375.02262285 302.62142998 377.88476562 307.94042969 C378.40264648 308.8970752 378.92052734 309.8537207 379.45410156 310.83935547 C404.95698094 358.1752603 423.76588787 409.14068456 435.88476562 461.50292969 C436.09820618 462.42285706 436.31164673 463.34278442 436.53155518 464.29058838 C442.27158454 489.17365568 446.42054745 514.12165424 449.19726562 539.50292969 C449.27893982 540.24685974 449.36061401 540.99078979 449.44476318 541.75726318 C451.71812166 562.82324885 452.07296898 583.82760297 452.07006836 604.99829102 C452.06998736 607.98891277 452.07690406 610.97938049 452.09057617 613.9699707 C452.20820484 640.18437141 450.74493552 665.89881322 447.07226562 691.87792969 C446.94126465 692.81989197 446.81026367 693.76185425 446.67529297 694.73236084 C444.51707165 710.22647181 442.08220283 725.62218445 438.88476562 740.94042969 C438.6847998 741.9280127 438.48483398 742.9155957 438.27880859 743.93310547 C425.70545054 805.32653311 402.16001842 866.67669032 370.88476562 920.94042969 C370.28583496 921.98473145 369.6869043 923.0290332 369.06982422 924.10498047 C352.97722015 952.0454017 335.12166752 978.82505989 314.88476562 1003.94042969 C313.76521484 1005.33455078 313.76521484 1005.33455078 312.62304688 1006.75683594 C303.52960207 1017.97262873 294.09060103 1028.86922027 284.26464844 1039.44726562 C282.87611642 1040.94978895 281.50021069 1042.4630055 280.12695312 1043.97949219 C274.2823173 1050.41241293 268.26969478 1056.65844206 262.13476562 1062.81542969 C261.43786621 1063.51692139 260.7409668 1064.21841309 260.02294922 1064.94116211 C256.05406607 1068.8982863 251.98176654 1072.67241699 247.73779297 1076.33251953 C245.12441158 1078.60020462 242.60415975 1080.95704999 240.07226562 1083.31542969 C235.50178657 1087.53317056 230.81537692 1091.54995608 225.96679688 1095.44824219 C223.65312444 1097.31912053 221.36289984 1099.20774847 219.08398438 1101.12011719 C203.45767114 1114.20662153 187.07024498 1125.9335081 170.13476562 1137.25292969 C169.44165283 1137.71715332 168.74854004 1138.18137695 168.03442383 1138.65966797 C158.48258494 1145.04565759 148.79308963 1151.12346419 138.88476562 1156.94042969 C137.51239746 1157.74855103 137.51239746 1157.74855103 136.11230469 1158.57299805 C86.2176445 1187.76343927 32.82471461 1209.37852165 -23.11523438 1223.94042969 C-24.26475586 1224.24086182 -24.26475586 1224.24086182 -25.4375 1224.54736328 C-29.98534729 1225.72746187 -34.54745193 1226.8397008 -39.11523438 1227.94042969 C-40.87480469 1228.39482422 -40.87480469 1228.39482422 -42.66992188 1228.85839844 C-63.80127964 1234.15204123 -85.5045931 1237.55498563 -107.11523438 1240.19042969 C-108.33855469 1240.34125 -109.561875 1240.49207031 -110.82226562 1240.64746094 C-114.91650458 1241.12333583 -119.01269983 1241.54379024 -123.11523438 1241.94042969 C-124.42985153 1242.07173279 -124.42985153 1242.07173279 -125.77102661 1242.20568848 C-143.97675269 1243.97603157 -162.08368704 1244.2547974 -180.35522461 1244.20117188 C-184.26522369 1244.18978817 -188.17495017 1244.19656269 -192.08493996 1244.20804214 C-217.34435248 1244.27110916 -242.3023404 1243.00118303 -267.36523438 1239.69042969 C-268.59117813 1239.53086288 -268.59117813 1239.53086288 -269.84188843 1239.36807251 C-362.63778719 1227.2035152 -453.24122532 1194.05309102 -535.31884766 1140.14013672 C-537.07562553 1138.96688224 -538.84283723 1137.81076749 -540.61132812 1136.65527344 C-566.47983918 1119.37913001 -585.80379748 1093.21746821 -592.08789062 1062.40136719 C-598.30829806 1028.7598218 -588.39337639 1001.10143512 -574.92437744 970.76580811 C-573.71455014 968.03650998 -572.51435887 965.30300787 -571.31445312 962.56933594 C-569.53659277 958.51965587 -567.75523498 954.47154934 -565.97070312 950.42480469 C-562.79861292 943.22689849 -559.64278625 936.02190756 -556.49023438 928.81542969 C-556.19976227 928.151492 -555.90929016 927.48755432 -555.61001587 926.80349731 C-552.09241693 918.76204785 -548.58108919 910.71788337 -545.07617188 902.67089844 C-544.73307983 901.88319061 -544.38998779 901.09548279 -544.03649902 900.28390503 C-543.69026489 899.48896637 -543.34403076 898.69402771 -542.98730469 897.875 C-531.17914591 870.76405602 -519.29078649 843.68852305 -507.37548828 816.62451172 C-503.34810265 807.47496153 -499.33021068 798.32124919 -495.31228638 789.1675415 C-485.67572182 767.21361718 -476.02882687 745.26443577 -466.33859253 723.33413696 C-465.11368886 720.56193189 -463.88899498 717.78963419 -462.66430664 715.01733398 C-458.88479549 706.4629096 -455.10287172 697.90957828 -451.31134033 689.36047363 C-449.24460845 684.70022926 -447.17944161 680.03929283 -445.11523438 675.37792969 C-444.71518188 674.474599 -444.31512939 673.57126831 -443.9029541 672.64056396 C-438.71234928 660.91180873 -433.58104819 649.16396777 -428.67382812 637.31323242 C-426.26744699 631.52933825 -423.68971554 625.84787869 -421.02043152 620.18054199 C-417.18474314 612.00648749 -413.55255436 603.74195161 -409.90893555 595.48095703 C-408.68516542 592.70727221 -407.45798357 589.93511521 -406.23046875 587.16308594 C-402.39248714 578.4801452 -398.60812129 569.78103365 -394.95507812 561.01855469 C-392.37340877 554.83121075 -389.66915015 548.72647784 -386.80020142 542.66744995 C-383.2612746 535.1783066 -379.94684305 527.59040456 -376.61233521 520.00860596 C-374.52837455 515.27074555 -372.43862537 510.53543772 -370.34960938 505.79980469 C-369.7013192 504.3296843 -369.7013192 504.3296843 -369.03993225 502.8298645 C-364.43890279 492.39962423 -359.81043456 481.98163327 -355.17773438 471.56542969 C-354.55809311 470.17200348 -354.55809311 470.17200348 -353.92593384 468.75042725 C-351.82801245 464.03271501 -349.72978384 459.31513952 -347.63134766 454.59765625 C-343.87368573 446.14961173 -340.11907263 437.70021218 -336.36422729 429.25091553 C-334.28135433 424.5640315 -332.19828439 419.87723502 -330.11523438 415.19042969 C-329.2819001 413.31543011 -328.44856676 411.44043011 -327.61523438 409.56542969 C-319.28190104 390.81542969 -310.94856771 372.06542969 -302.61523438 353.31542969 C-302.20278976 352.38742554 -301.79034515 351.45942139 -301.36540222 350.5032959 C-300.53152072 348.62707016 -299.69762789 346.75084946 -298.86372375 344.87463379 C-296.78868465 340.20592867 -294.71383847 335.53713801 -292.6394043 330.86816406 C-288.79103291 322.20708984 -284.94088641 313.54681941 -281.08401489 304.88952637 C-279.29428463 300.87191092 -277.50562688 296.85381838 -275.71704102 292.83569336 C-274.8774024 290.95020305 -274.03725882 289.06493751 -273.1965332 287.17993164 C-268.88164347 277.50510544 -264.61886778 267.81303313 -260.47070312 258.06542969 C-257.43194067 250.93122012 -254.27075546 243.88258246 -250.95556641 236.87207031 C-248.73887773 232.16685075 -246.6150445 227.42030782 -244.48632812 222.67480469 C-244.08427155 221.7802356 -243.68221497 220.8856665 -243.26797485 219.96398926 C-241.60967578 216.27404836 -239.95212988 212.58379182 -238.30102539 208.890625 C-222.65315719 173.91051297 -222.65315719 173.91051297 -206.11523438 165.94042969 C-202.82304272 164.72950862 -199.52137647 163.7710503 -196.11523438 162.94042969 C-195.48101563 162.75867188 -194.84679687 162.57691406 -194.19335938 162.38964844 C-182.19592485 159.79621804 -170.43795543 163.35745171 -160.24023438 169.75292969 C-158.84176002 170.78433684 -157.46571498 171.84693374 -156.11523438 172.94042969 C-155.10396484 173.73126953 -155.10396484 173.73126953 -154.07226562 174.53808594 C-147.18037001 180.6034873 -143.83415829 188.75203863 -140.11523438 196.94042969 C-139.78475098 197.65650391 -139.45426758 198.37257813 -139.11376953 199.11035156 C-132.87616911 212.62866974 -126.99782721 226.31235389 -121.04101562 239.95605469 C-116.8291717 249.60257294 -112.59787809 259.2405238 -108.36523438 268.87792969 C-107.60106225 270.61824019 -106.83690216 272.35855597 -106.07275391 274.09887695 C-102.61512396 281.97310176 -99.15651787 289.84689681 -95.69644165 297.720047 C-87.62595179 316.08452902 -79.57355553 334.45656428 -71.56674194 352.84890747 C-66.02490992 365.57810285 -60.452146 378.29346134 -54.86523438 391.00292969 C-49.20889745 403.87155624 -43.58021822 416.75119994 -38.0012207 429.65356445 C-33.70377061 439.59070932 -29.38148804 449.5168844 -25.05273438 459.44042969 C-16.66281764 478.67627355 -8.293744 497.9211435 0.07147217 517.16773987 C2.97707977 523.85278107 5.88373977 530.53736385 8.79101562 537.22167969 C25.9235512 576.61349913 43.04023223 616.0122251 60.07795715 655.44515991 C62.62757652 661.34601621 65.17919794 667.24600509 67.73127747 673.14579773 C70.40233038 679.32072521 73.07244695 685.49605711 75.74211121 691.67158508 C77.5110172 695.76336431 79.28029433 699.85498236 81.05029297 703.94628906 C91.13611238 727.26030654 101.16944106 750.59621021 111.16329956 773.94979858 C118.53780079 791.17848937 125.97093537 808.38070815 133.44726562 825.56542969 C141.58066968 844.26458865 149.63909983 862.99455655 157.63476562 881.75292969 C158.13348175 882.92148499 158.63219788 884.09004028 159.14602661 885.29400635 C160.55575381 888.59846763 161.96293313 891.90400055 163.36914062 895.20996094 C163.78366989 896.18144577 164.19819916 897.1529306 164.62528992 898.15385437 C173.18553138 918.32068934 173.18553138 918.32068934 170.15820312 928.34667969 C168.20695985 932.59816911 165.87816843 935.38055609 161.88476562 937.94042969 C156.81265506 939.63113321 151.99935622 939.71636727 147.07226562 937.62792969 C139.70318634 933.55172638 134.01236786 926.41940258 128.57226562 920.11621094 C124.71388382 915.68156707 120.61367587 911.52183907 116.44726562 907.37792969 C115.73505859 906.66185547 115.02285156 905.94578125 114.2890625 905.20800781 C110.20545617 901.13181948 106.01614585 897.25039478 101.64624023 893.48364258 C99.45568911 891.56451941 97.41218567 889.53023188 95.38476562 887.44042969 C92.03219783 884.0477457 88.5900088 880.84942285 84.97070312 877.74511719 C82.63451062 875.72391693 80.35511711 873.6466413 78.07226562 871.56542969 C73.75701986 867.67118351 69.31384808 863.97388244 64.79492188 860.31933594 C62.21561368 858.21088132 59.67516887 856.06711879 57.14453125 853.90112305 C50.79708209 848.47223396 44.30358592 843.28979047 37.63427734 838.26025391 C35.78851592 836.86781932 33.9480127 835.46859638 32.10742188 834.06933594 C-3.79425789 806.86569253 -41.90926443 783.24829912 -82.11523438 762.94042969 C-83.00549316 762.48990234 -83.89575195 762.039375 -84.81298828 761.57519531 C-97.16569168 755.37508406 -109.77733226 749.88570419 -122.55273438 744.62792969 C-123.25894928 744.3371051 -123.96516418 744.04628052 -124.69277954 743.74664307 C-145.82877904 735.06840796 -167.09516772 727.51646072 -189.20605469 721.70654297 C-191.11045936 721.20503056 -193.01352273 720.69839001 -194.91503906 720.18603516 C-231.4608845 710.35465192 -268.31443706 705.69361598 -306.11523438 704.94042969 C-303.96248969 702.787685 -303.04727612 702.47336317 -300.18554688 701.72167969 C-299.00255005 701.40807495 -299.00255005 701.40807495 -297.7956543 701.08813477 C-296.95236572 700.87439209 -296.10907715 700.66064941 -295.24023438 700.44042969 C-293.93759644 700.10724731 -293.93759644 700.10724731 -292.60864258 699.76733398 C-286.13930825 698.14171874 -279.74457566 696.73718833 -273.11523438 695.94042969 C-272.40222168 695.85164551 -271.68920898 695.76286133 -270.95458984 695.67138672 C-233.43343821 691.15544539 -190.00747525 692.75959208 -153.25048828 702.40478516 C-150.83534482 703.01064209 -148.41008603 703.51925535 -145.97070312 704.01855469 C-134.31466217 706.41533517 -122.99712161 709.22049533 -111.73095703 713.05419922 C-108.8379046 714.03439152 -105.935706 714.98469783 -103.03320312 715.93652344 C-87.6293056 721.05526045 -72.83678237 727.11643918 -58.11523438 733.94042969 C-57.09606934 734.40819824 -56.0769043 734.8759668 -55.02685547 735.35791016 C-10.68384077 755.78669425 30.87805943 782.3270937 68.88476562 812.94042969 C69.52655762 813.45605469 70.16834961 813.97167969 70.82958984 814.50292969 C79.96189996 821.84939526 88.97419029 829.32677028 97.88476562 836.94042969 C92.77067023 825.15999314 87.28745356 813.59512008 81.50976562 802.12792969 C76.65007889 792.48051929 71.85917231 782.80931054 67.22680664 773.05004883 C63.02029525 764.19572992 58.7363844 755.37992581 54.44726562 746.56542969 C49.07240569 735.51644602 43.72020597 724.45743342 38.41455078 713.375 C34.24575016 704.67452457 30.03591816 695.99423746 25.82226562 687.31542969 C20.86207604 677.09843559 15.92503956 666.87133279 11.03686523 656.61962891 C7.18316563 648.5451424 3.28604875 640.49199331 -0.61523438 632.44042969 C-5.43145969 622.50012545 -10.22578461 612.55005493 -14.98242188 602.58105469 C-18.67062686 594.85649557 -22.39025427 587.14729372 -26.11523438 579.44042969 C-31.23813809 568.8404479 -36.3342235 558.2279919 -41.40820312 547.60449219 C-44.28220773 541.5878648 -47.16673024 535.57630858 -50.05273438 529.56542969 C-50.80562744 527.99668091 -50.80562744 527.99668091 -51.57373047 526.39624023 C-54.03824936 521.26202355 -56.50549962 516.12915303 -58.97851562 510.99902344 C-63.28742451 502.05262844 -67.58064623 493.09980397 -71.79492188 484.10839844 C-72.11381882 483.42807053 -72.43271576 482.74774261 -72.76127625 482.04679871 C-73.41963442 480.64205746 -74.07797463 479.23730779 -74.73629761 477.83255005 C-75.06759674 477.12565033 -75.39889587 476.41875061 -75.74023438 475.69042969 C-76.072742 474.98087128 -76.40524963 474.27131287 -76.74783325 473.54025269 C-82.53538513 461.2001387 -88.47501189 448.93840489 -94.46224976 436.69415283 C-99.79991264 425.77259286 -104.99920546 414.80250133 -110.07299805 403.75537109 C-114.77079549 393.57644461 -119.68465427 383.50813666 -124.61523438 373.44042969 C-130.6598102 361.09776717 -136.59490644 348.72174914 -142.33398438 336.23339844 C-146.80233253 326.53877978 -151.45540447 316.94005784 -156.13674927 307.34716797 C-161.49694809 296.35849469 -166.71367033 285.31223471 -171.77929688 274.18457031 C-174.94833976 267.26914561 -178.38028416 260.56769896 -182.11523438 253.94042969 C-183.76523437 253.94042969 -185.41523437 253.94042969 -187.11523438 253.94042969 C-190.89439199 261.2078851 -194.15033777 268.60747398 -197.24023438 276.19042969 C-197.74933544 277.43116217 -198.25887443 278.67171504 -198.76879883 279.91210938 C-199.91168763 282.69305937 -201.05275286 285.474749 -202.19287109 288.25683594 C-205.47455096 296.25874612 -208.78193368 304.25007958 -212.08496094 312.24319458 C-213.31286851 315.21495616 -214.54028295 318.186921 -215.76757812 321.15893555 C-222.80806539 338.20669613 -229.86940584 355.24576324 -236.93835449 372.28173828 C-239.51904497 378.50169391 -242.0968471 384.72284267 -244.67382812 390.94433594 C-245.8099992 393.6867329 -246.94621928 396.42910955 -248.0824585 399.17147827 C-248.79524889 400.89212528 -249.50786393 402.61284495 -250.22027588 404.33364868 C-253.82208991 413.03338315 -257.43936089 421.72603698 -261.09960938 430.40136719 C-264.85105912 439.29309542 -268.55169352 448.205354 -272.2406311 457.12316895 C-277.77154099 470.49219642 -283.32174618 483.85270423 -288.92773438 497.19042969 C-292.87163342 506.57509557 -296.79215782 515.9689374 -300.67773438 525.37792969 C-311.62641224 551.88476136 -322.59918248 578.38445986 -333.82128906 604.77685547 C-338.58126191 615.99470719 -343.24727866 627.25173672 -347.92773438 638.50292969 C-353.75976861 652.52134858 -359.60822102 666.53179281 -365.55273438 680.50292969 C-365.83152435 681.15822662 -366.11031433 681.81352356 -366.39755249 682.48867798 C-366.67394562 683.13831512 -366.95033875 683.78795227 -367.23510742 684.45727539 C-367.78501797 685.74982683 -368.33490428 687.04238857 -368.88476562 688.33496094 C-369.15207993 688.96332352 -369.41939423 689.5916861 -369.69480896 690.23908997 C-377.51084039 708.6246234 -385.19419591 727.06665177 -392.80712891 745.53710938 C-395.83237289 752.87030949 -398.89698145 760.18601958 -401.97912598 767.49545288 C-404.38401102 773.19982611 -406.77880985 778.90832379 -409.16601562 784.62011719 C-409.50717407 785.4362851 -409.84833252 786.252453 -410.1998291 787.09335327 C-410.90771753 788.78690055 -411.61559286 790.4804533 -412.32345581 792.17401123 C-421.40577312 813.89878371 -430.55540729 835.59478063 -439.72412109 857.28320312 C-443.29538114 865.73158417 -446.86230969 874.18179407 -450.42956543 882.63186646 C-452.40407372 887.30899948 -454.37878545 891.9860466 -456.35351562 896.66308594 C-456.74477631 897.58977585 -457.13603699 898.51646576 -457.53915405 899.47123718 C-459.94394782 905.16678349 -462.34915218 910.86215624 -464.75465393 916.55740356 C-466.77081001 921.33085768 -468.78680463 926.10437998 -470.80273438 930.87792969 C-471.19778168 931.81334595 -471.59282898 932.74876221 -471.99984741 933.71252441 C-476.12919605 943.49083892 -480.25602038 953.2702011 -484.37304688 963.05371094 C-484.71347519 963.86262787 -485.0539035 964.6715448 -485.40464783 965.50497437 C-487.06331419 969.4466551 -488.72123836 973.38864604 -490.37817383 977.33105469 C-493.61409923 985.02654246 -496.86733876 992.71413704 -500.15039062 1000.38964844 C-500.80302159 1001.91795036 -501.45561024 1003.44627035 -502.1081543 1004.97460938 C-503.32637276 1007.82752257 -504.54988934 1010.6780785 -505.77661133 1013.52734375 C-506.32458456 1014.80948355 -506.87236568 1016.09170548 -507.41992188 1017.37402344 C-507.89413574 1018.4780249 -508.36834961 1019.58202637 -508.85693359 1020.71948242 C-512.57478715 1030.23629304 -514.15207904 1040.51820772 -511.01757812 1050.40136719 C-506.12293533 1060.76495753 -498.68459207 1066.63767538 -489.11523438 1072.56542969 C-488.15319092 1073.16806641 -487.19114746 1073.77070312 -486.19995117 1074.39160156 C-475.69312768 1080.9150174 -464.97703568 1087.03046071 -454.11523438 1092.94042969 C-453.09929199 1093.49698242 -452.08334961 1094.05353516 -451.03662109 1094.62695312 C-437.28345989 1102.11547357 -423.3186444 1108.78681219 -408.92773438 1114.94042969 C-408.20469116 1115.24994568 -407.48164795 1115.55946167 -406.73669434 1115.87835693 C-379.85222199 1127.33953522 -352.32313141 1136.42342859 -323.92773438 1143.31542969 C-323.08598663 1143.52035034 -322.24423889 1143.725271 -321.37698364 1143.93640137 C-304.98752465 1147.90355994 -288.47750439 1151.45592454 -271.80273438 1154.00292969 C-270.73788818 1154.16575439 -269.67304199 1154.3285791 -268.57592773 1154.49633789 C-259.80079618 1155.78730021 -251.00354575 1156.76853594 -242.17773438 1157.62792969 C-240.95981201 1157.74724854 -239.74188965 1157.86656738 -238.48706055 1157.98950195 C-187.57074814 1162.70063195 -136.34069832 1160.47020341 -86.11523438 1150.94042969 C-83.81335404 1150.52134441 -81.51127066 1150.10337284 -79.20898438 1149.68652344 C-61.0147781 1146.34443646 -43.29274324 1142.12646654 -25.70117188 1136.40527344 C-22.04139261 1135.22004783 -18.36231827 1134.13954361 -14.65942383 1133.09814453 C-5.79570326 1130.59382761 2.70968375 1127.4688356 11.24072266 1124.00634766 C14.15521754 1122.83139986 17.08013813 1121.68478064 20.00585938 1120.53808594 C37.05084122 1113.79716836 53.51000019 1106.14779382 69.88476562 1097.94042969 C70.78130859 1097.49344727 71.67785156 1097.04646484 72.6015625 1096.5859375 C110.7516519 1077.45019258 145.71085907 1052.43629847 178.13476562 1024.81542969 C178.64048096 1024.38536621 179.14619629 1023.95530273 179.66723633 1023.51220703 C190.24298797 1014.41482218 200.25370706 1004.75802602 210.11303711 994.89746094 C212.0751697 992.93752887 214.04520619 990.98577673 216.015625 989.03417969 C222.38030863 982.6971064 228.47375018 976.34626153 234.02172852 969.27099609 C235.95998181 966.84633799 238.01387152 964.58102318 240.13476562 962.31542969 C245.95358087 955.91979276 251.07440672 949.00025839 256.26025391 942.09130859 C257.75295474 940.11494935 259.26498534 938.15588059 260.78710938 936.20214844 C277.45273413 914.65591733 291.61977458 891.11728176 304.63623047 867.22460938 C305.44327663 865.74812836 306.25574174 864.27459074 307.07470703 862.8046875 C320.32881445 839.01017255 330.46341633 813.4497767 339.88476562 787.94042969 C340.18318359 787.14685059 340.48160156 786.35327148 340.7890625 785.53564453 C344.99783705 774.33782847 348.17198275 762.94406599 351.22509766 751.38330078 C352.06913575 748.25767342 353.00765606 745.16349978 353.94726562 742.06542969 C367.23631996 695.52639577 371.1207534 646.52727405 371.13476562 598.37792969 C371.13520748 597.68031273 371.13564934 596.98269577 371.13610458 596.2639389 C371.14325734 574.68079872 370.75225387 553.36686138 367.88476562 531.94042969 C367.71109275 530.59363014 367.5377614 529.24678652 367.36474609 527.89990234 C355.81150256 439.18730985 323.29401721 352.43982579 224.55273438 220.85449219 C222.57164653 218.69066857 220.65202914 216.50647376 218.74414062 214.28027344 C214.50650618 209.42018435 209.96400916 204.86921258 205.39672852 200.32202148 C203.94952177 198.88017748 202.50774537 197.43305853 201.06640625 195.98535156 C195.84182191 190.75701831 190.50191803 185.74366652 184.88476562 180.94042969 C183.2770819 179.48597452 181.67236848 178.02822074 180.07226562 176.56542969 C174.82295586 171.83466876 169.38852617 167.37045917 163.88476562 162.94042969 C162.75162865 162.01504561 161.61883114 161.08924576 160.48632812 160.16308594 C140.38654846 143.80634279 118.8660172 129.61291044 96.88476562 115.94042969 C96.20881348 115.51842285 95.53286133 115.09641602 94.83642578 114.66162109 C86.93099638 109.74495146 78.90462124 105.29319725 70.53320312 101.22167969 C67.03381607 99.51902508 63.56949672 97.7565409 60.11132812 95.97167969 C26.06759491 78.48576064 -10.12829774 64.80801171 -47.11523438 54.94042969 C-48.19901367 54.6482959 -49.28279297 54.35616211 -50.39941406 54.05517578 C-67.82378979 49.39990298 -85.29926922 45.73310529 -103.11523438 42.94042969 C-104.14611176 42.77834015 -104.14611176 42.77834015 -105.19781494 42.61297607 C-136.31327324 37.74399531 -166.93698595 35.77885771 -198.42773438 35.69042969 C-199.60444702 35.68498138 -200.78115967 35.67953308 -201.99353027 35.67391968 C-246.16435191 35.52177385 -289.17805858 41.85935799 -332.11523438 51.94042969 C-333.14100586 52.17874512 -334.16677734 52.41706055 -335.22363281 52.66259766 C-369.01807116 60.57112587 -401.62297845 72.40669134 -433.11523438 86.94042969 C-434.1382666 87.41206543 -435.16129883 87.88370117 -436.21533203 88.36962891 C-473.68473483 105.75877655 -509.40898664 126.63314578 -542.11523438 151.94042969 C-543.15421875 152.72546875 -544.19320312 153.51050781 -545.26367188 154.31933594 C-552.01768093 159.43243809 -558.54120769 164.76258418 -564.97460938 170.27246094 C-567.93440118 172.80251725 -570.95652233 175.24936904 -573.99023438 177.69042969 C-577.66532449 180.67943206 -581.0733738 183.7652718 -584.35327148 187.17944336 C-586.01891192 188.84416062 -587.737859 190.35624335 -589.53710938 191.87402344 C-594.94060066 196.57130973 -599.96497423 201.64039391 -605.01538086 206.71020508 C-606.67450758 208.37469246 -608.33891489 210.03376416 -610.00390625 211.69238281 C-615.58514893 217.27013461 -621.00110419 222.9269149 -626.11523438 228.94042969 C-627.56968955 230.54811341 -629.02744332 232.15282683 -630.49023438 233.75292969 C-635.22036713 239.00241823 -639.70072388 244.42411575 -644.11523438 249.94042969 C-644.52467285 250.45025391 -644.93411133 250.96007812 -645.35595703 251.48535156 C-658.10225676 267.39024179 -670.02824096 283.83870524 -681.11523438 300.94042969 C-681.83743164 302.04475342 -681.83743164 302.04475342 -682.57421875 303.17138672 C-691.41726078 316.72225653 -699.37591404 330.73476037 -707.11523438 344.94042969 C-707.58654785 345.79950424 -707.58654785 345.79950424 -708.06738281 346.67593384 C-713.34493597 356.31096623 -718.110812 366.1099428 -722.61523438 376.12792969 C-723.10363297 377.20983582 -723.10363297 377.20983582 -723.60189819 378.31359863 C-732.99338883 399.13637367 -740.90658393 420.26219717 -748.11523438 441.94042969 C-748.43878906 442.90223145 -748.76234375 443.8640332 -749.09570312 444.85498047 C-755.31707819 463.5157097 -759.4377614 482.73544075 -763.66864014 501.92285156 C-764.04860165 503.63940312 -764.43499555 505.35452882 -764.82275391 507.06933594 C-767.21164577 517.65073354 -768.85696078 528.34096025 -770.40710449 539.07290649 C-770.62117018 540.55408963 -770.83783034 542.03490139 -771.05773926 543.51522827 C-774.70425194 568.29080719 -775.4562051 593.2156526 -775.37597656 618.21557617 C-775.36457204 621.79028303 -775.37139505 625.36469237 -775.38284016 628.93938923 C-775.45252156 654.5061504 -774.08172728 679.80263955 -770.42773438 705.12792969 C-770.30062073 706.0285614 -770.17350708 706.92919312 -770.0425415 707.8571167 C-767.70795515 724.3108894 -764.59820665 740.5142977 -760.85986328 756.70361328 C-760.23729872 759.40982999 -759.64088515 762.11866372 -759.06445312 764.83496094 C-753.23079318 791.83457866 -744.1179968 820.10935497 -732.97851562 845.42089844 C-732.11523438 847.94042969 -732.11523438 847.94042969 -733.11523438 850.94042969 C-739.5325428 838.00636504 -745.51926965 824.93447527 -751.11523438 811.62792969 C-751.53317764 810.64093582 -751.53317764 810.64093582 -751.95956421 809.63400269 C-754.80746227 802.89431735 -757.48816018 796.19166387 -759.47338867 789.14038086 C-760.28069078 786.37332141 -761.29044539 783.71211508 -762.32470703 781.0234375 C-777.37773435 741.35931488 -786.06074129 698.990021 -791.11523438 656.94042969 C-791.19880188 656.25382263 -791.28236938 655.56721558 -791.36846924 654.85980225 C-796.84402905 609.18598303 -796.53340341 560.61094686 -791.11523438 514.94042969 C-790.98087982 513.80655823 -790.98087982 513.80655823 -790.84381104 512.64978027 C-788.70258654 494.84331828 -785.94279584 477.21636013 -781.77880859 459.75976562 C-781.06189985 456.71382663 -780.38491045 453.66063726 -779.71289062 450.60449219 C-769.81950606 405.95980613 -753.94615179 363.0937782 -734.11523438 321.94042969 C-733.41164795 320.46751465 -733.41164795 320.46751465 -732.69384766 318.96484375 C-725.59874986 304.16146001 -717.55305658 290.01504461 -709.11523438 275.94042969 C-708.62522949 275.11526855 -708.13522461 274.29010742 -707.63037109 273.43994141 C-700.60104576 261.60457648 -693.031901 250.19963705 -685.11523438 238.94042969 C-684.57608398 238.17166504 -684.03693359 237.40290039 -683.48144531 236.61083984 C-676.21113653 226.2824547 -668.56279765 216.35948998 -660.5078125 206.6328125 C-658.6581036 204.38488436 -656.85485885 202.10159585 -655.05273438 199.81542969 C-641.33004205 182.66206429 -626.17571215 166.91767807 -610.67773438 151.37792969 C-610.11552185 150.81303833 -609.55330933 150.24814697 -608.97406006 149.6661377 C-602.86767847 143.53768566 -596.70959093 137.54853062 -590.11523438 131.94042969 C-588.50755065 130.48597452 -586.90283723 129.02822074 -585.30273438 127.56542969 C-580.05342461 122.83466876 -574.61899492 118.37045917 -569.11523438 113.94042969 C-567.9820974 113.01504561 -566.84929989 112.08924576 -565.71679688 111.16308594 C-500.04922567 57.71811604 -421.88351317 17.82584085 -340.11523438 -4.05957031 C-339.10638184 -4.33124023 -338.0975293 -4.60291016 -337.05810547 -4.8828125 C-309.89739234 -12.12401798 -282.08335407 -18.0282229 -254.11523438 -21.05957031 C-252.35518066 -21.25244629 -252.35518066 -21.25244629 -250.55957031 -21.44921875 C-246.60027073 -21.87511152 -242.63965452 -22.28400977 -238.67773438 -22.68457031 C-237.47656982 -22.80799805 -236.27540527 -22.93142578 -235.0378418 -23.05859375 C-157.4760148 -30.51179653 -74.32443428 -24.42849686 0 0 Z " fill="#FEFEFE" transform="translate(1187.115234375,397.0595703125)"/>
<path d="M0 0 C3.17745381 1.03584564 6.36574242 2.03273421 9.55664062 3.02636719 C99.12995041 31.08457601 181.63959977 78.53678401 271.38476562 163.31542969 C271.99935638 163.92734161 272.61394714 164.53925354 273.24716187 165.16970825 C279.68211207 171.58338518 286.00913681 178.00304217 291.88476562 184.94042969 C293.3392208 186.54811341 294.79697457 188.15282683 296.25976562 189.75292969 C300.99048065 195.00218852 305.45560256 200.43601964 309.88476562 205.94042969 C310.79851004 207.0617827 311.71258702 208.1828648 312.62695312 209.30371094 C333.15893632 234.5754397 351.70137611 261.68183776 367.88476562 289.94042969 C368.29275391 290.64893066 368.70074219 291.35743164 369.12109375 292.08740234 C372.12521794 297.32774257 375.02262285 302.62142998 377.88476562 307.94042969 C378.40264648 308.8970752 378.92052734 309.8537207 379.45410156 310.83935547 C404.95698094 358.1752603 423.76588787 409.14068456 435.88476562 461.50292969 C436.09820618 462.42285706 436.31164673 463.34278442 436.53155518 464.29058838 C442.27158454 489.17365568 446.42054745 514.12165424 449.19726562 539.50292969 C449.27893982 540.24685974 449.36061401 540.99078979 449.44476318 541.75726318 C451.71812166 562.82324885 452.07296898 583.82760297 452.07006836 604.99829102 C452.06998736 607.98891277 452.07690406 610.97938049 452.09057617 613.9699707 C452.20820484 640.18437141 450.74493552 665.89881322 447.07226562 691.87792969 C446.94126465 692.81989197 446.81026367 693.76185425 446.67529297 694.73236084 C444.51707165 710.22647181 442.08220283 725.62218445 438.88476562 740.94042969 C438.6847998 741.9280127 438.48483398 742.9155957 438.27880859 743.93310547 C425.70545054 805.32653311 402.16001842 866.67669032 370.88476562 920.94042969 C370.28583496 921.98473145 369.6869043 923.0290332 369.06982422 924.10498047 C352.97722015 952.0454017 335.12166752 978.82505989 314.88476562 1003.94042969 C313.76521484 1005.33455078 313.76521484 1005.33455078 312.62304688 1006.75683594 C303.52960207 1017.97262873 294.09060103 1028.86922027 284.26464844 1039.44726562 C282.87611642 1040.94978895 281.50021069 1042.4630055 280.12695312 1043.97949219 C274.2823173 1050.41241293 268.26969478 1056.65844206 262.13476562 1062.81542969 C261.43786621 1063.51692139 260.7409668 1064.21841309 260.02294922 1064.94116211 C256.05406607 1068.8982863 251.98176654 1072.67241699 247.73779297 1076.33251953 C245.12441158 1078.60020462 242.60415975 1080.95704999 240.07226562 1083.31542969 C235.50178657 1087.53317056 230.81537692 1091.54995608 225.96679688 1095.44824219 C223.65312444 1097.31912053 221.36289984 1099.20774847 219.08398438 1101.12011719 C203.45767114 1114.20662153 187.07024498 1125.9335081 170.13476562 1137.25292969 C169.44165283 1137.71715332 168.74854004 1138.18137695 168.03442383 1138.65966797 C158.48258494 1145.04565759 148.79308963 1151.12346419 138.88476562 1156.94042969 C137.51239746 1157.74855103 137.51239746 1157.74855103 136.11230469 1158.57299805 C86.2176445 1187.76343927 32.82471461 1209.37852165 -23.11523438 1223.94042969 C-24.26475586 1224.24086182 -24.26475586 1224.24086182 -25.4375 1224.54736328 C-29.98534729 1225.72746187 -34.54745193 1226.8397008 -39.11523438 1227.94042969 C-40.87480469 1228.39482422 -40.87480469 1228.39482422 -42.66992188 1228.85839844 C-63.80127964 1234.15204123 -85.5045931 1237.55498563 -107.11523438 1240.19042969 C-108.33855469 1240.34125 -109.561875 1240.49207031 -110.82226562 1240.64746094 C-114.91650458 1241.12333583 -119.01269983 1241.54379024 -123.11523438 1241.94042969 C-124.42985153 1242.07173279 -124.42985153 1242.07173279 -125.77102661 1242.20568848 C-143.97675269 1243.97603157 -162.08368704 1244.2547974 -180.35522461 1244.20117188 C-184.26522369 1244.18978817 -188.17495017 1244.19656269 -192.08493996 1244.20804214 C-217.34435248 1244.27110916 -242.3023404 1243.00118303 -267.36523438 1239.69042969 C-268.59117813 1239.53086288 -268.59117813 1239.53086288 -269.84188843 1239.36807251 C-362.63778719 1227.2035152 -453.24122532 1194.05309102 -535.31884766 1140.14013672 C-537.07562553 1138.96688224 -538.84283723 1137.81076749 -540.61132812 1136.65527344 C-566.47983918 1119.37913001 -585.80379748 1093.21746821 -592.08789062 1062.40136719 C-598.30829806 1028.7598218 -588.39337639 1001.10143512 -574.92437744 970.76580811 C-573.71455014 968.03650998 -572.51435887 965.30300787 -571.31445312 962.56933594 C-569.53659277 958.51965587 -567.75523498 954.47154934 -565.97070312 950.42480469 C-562.79861292 943.22689849 -559.64278625 936.02190756 -556.49023438 928.81542969 C-556.19976227 928.151492 -555.90929016 927.48755432 -555.61001587 926.80349731 C-552.09241693 918.76204785 -548.58108919 910.71788337 -545.07617188 902.67089844 C-544.73307983 901.88319061 -544.38998779 901.09548279 -544.03649902 900.28390503 C-543.69026489 899.48896637 -543.34403076 898.69402771 -542.98730469 897.875 C-531.17914591 870.76405602 -519.29078649 843.68852305 -507.37548828 816.62451172 C-503.34810265 807.47496153 -499.33021068 798.32124919 -495.31228638 789.1675415 C-485.67572182 767.21361718 -476.02882687 745.26443577 -466.33859253 723.33413696 C-465.11368886 720.56193189 -463.88899498 717.78963419 -462.66430664 715.01733398 C-458.88479549 706.4629096 -455.10287172 697.90957828 -451.31134033 689.36047363 C-449.24460845 684.70022926 -447.17944161 680.03929283 -445.11523438 675.37792969 C-444.71518188 674.474599 -444.31512939 673.57126831 -443.9029541 672.64056396 C-438.71234928 660.91180873 -433.58104819 649.16396777 -428.67382812 637.31323242 C-426.26744699 631.52933825 -423.68971554 625.84787869 -421.02043152 620.18054199 C-417.18474314 612.00648749 -413.55255436 603.74195161 -409.90893555 595.48095703 C-408.68516542 592.70727221 -407.45798357 589.93511521 -406.23046875 587.16308594 C-402.39248714 578.4801452 -398.60812129 569.78103365 -394.95507812 561.01855469 C-392.37340877 554.83121075 -389.66915015 548.72647784 -386.80020142 542.66744995 C-383.2612746 535.1783066 -379.94684305 527.59040456 -376.61233521 520.00860596 C-374.52837455 515.27074555 -372.43862537 510.53543772 -370.34960938 505.79980469 C-369.7013192 504.3296843 -369.7013192 504.3296843 -369.03993225 502.8298645 C-364.43890279 492.39962423 -359.81043456 481.98163327 -355.17773438 471.56542969 C-354.55809311 470.17200348 -354.55809311 470.17200348 -353.92593384 468.75042725 C-351.82801245 464.03271501 -349.72978384 459.31513952 -347.63134766 454.59765625 C-343.87368573 446.14961173 -340.11907263 437.70021218 -336.36422729 429.25091553 C-334.28135433 424.5640315 -332.19828439 419.87723502 -330.11523438 415.19042969 C-329.2819001 413.31543011 -328.44856676 411.44043011 -327.61523438 409.56542969 C-319.28190104 390.81542969 -310.94856771 372.06542969 -302.61523438 353.31542969 C-302.20278976 352.38742554 -301.79034515 351.45942139 -301.36540222 350.5032959 C-300.53152072 348.62707016 -299.69762789 346.75084946 -298.86372375 344.87463379 C-296.78868465 340.20592867 -294.71383847 335.53713801 -292.6394043 330.86816406 C-288.79103291 322.20708984 -284.94088641 313.54681941 -281.08401489 304.88952637 C-279.29428463 300.87191092 -277.50562688 296.85381838 -275.71704102 292.83569336 C-274.8774024 290.95020305 -274.03725882 289.06493751 -273.1965332 287.17993164 C-268.88164347 277.50510544 -264.61886778 267.81303313 -260.47070312 258.06542969 C-257.43194067 250.93122012 -254.27075546 243.88258246 -250.95556641 236.87207031 C-248.73887773 232.16685075 -246.6150445 227.42030782 -244.48632812 222.67480469 C-244.08427155 221.7802356 -243.68221497 220.8856665 -243.26797485 219.96398926 C-241.60967578 216.27404836 -239.95212988 212.58379182 -238.30102539 208.890625 C-222.65315719 173.91051297 -222.65315719 173.91051297 -206.11523438 165.94042969 C-202.82304272 164.72950862 -199.52137647 163.7710503 -196.11523438 162.94042969 C-195.48101563 162.75867188 -194.84679687 162.57691406 -194.19335938 162.38964844 C-182.19592485 159.79621804 -170.43795543 163.35745171 -160.24023438 169.75292969 C-158.84176002 170.78433684 -157.46571498 171.84693374 -156.11523438 172.94042969 C-155.10396484 173.73126953 -155.10396484 173.73126953 -154.07226562 174.53808594 C-147.18037001 180.6034873 -143.83415829 188.75203863 -140.11523438 196.94042969 C-139.78475098 197.65650391 -139.45426758 198.37257813 -139.11376953 199.11035156 C-132.87616911 212.62866974 -126.99782721 226.31235389 -121.04101562 239.95605469 C-116.8291717 249.60257294 -112.59787809 259.2405238 -108.36523438 268.87792969 C-107.60106225 270.61824019 -106.83690216 272.35855597 -106.07275391 274.09887695 C-102.61512396 281.97310176 -99.15651787 289.84689681 -95.69644165 297.720047 C-87.62595179 316.08452902 -79.57355553 334.45656428 -71.56674194 352.84890747 C-66.02490992 365.57810285 -60.452146 378.29346134 -54.86523438 391.00292969 C-49.20889745 403.87155624 -43.58021822 416.75119994 -38.0012207 429.65356445 C-33.70377061 439.59070932 -29.38148804 449.5168844 -25.05273438 459.44042969 C-16.66281764 478.67627355 -8.293744 497.9211435 0.07147217 517.16773987 C2.97707977 523.85278107 5.88373977 530.53736385 8.79101562 537.22167969 C25.9235512 576.61349913 43.04023223 616.0122251 60.07795715 655.44515991 C62.62757652 661.34601621 65.17919794 667.24600509 67.73127747 673.14579773 C70.40233038 679.32072521 73.07244695 685.49605711 75.74211121 691.67158508 C77.5110172 695.76336431 79.28029433 699.85498236 81.05029297 703.94628906 C91.13611238 727.26030654 101.16944106 750.59621021 111.16329956 773.94979858 C118.53780079 791.17848937 125.97093537 808.38070815 133.44726562 825.56542969 C141.58066968 844.26458865 149.63909983 862.99455655 157.63476562 881.75292969 C158.13348175 882.92148499 158.63219788 884.09004028 159.14602661 885.29400635 C160.55575381 888.59846763 161.96293313 891.90400055 163.36914062 895.20996094 C163.78366989 896.18144577 164.19819916 897.1529306 164.62528992 898.15385437 C173.18553138 918.32068934 173.18553138 918.32068934 170.15820312 928.34667969 C168.20695985 932.59816911 165.87816843 935.38055609 161.88476562 937.94042969 C156.81265506 939.63113321 151.99935622 939.71636727 147.07226562 937.62792969 C139.70318634 933.55172638 134.01236786 926.41940258 128.57226562 920.11621094 C124.71388382 915.68156707 120.61367587 911.52183907 116.44726562 907.37792969 C115.73505859 906.66185547 115.02285156 905.94578125 114.2890625 905.20800781 C110.20545617 901.13181948 106.01614585 897.25039478 101.64624023 893.48364258 C99.45568911 891.56451941 97.41218567 889.53023188 95.38476562 887.44042969 C92.03219783 884.0477457 88.5900088 880.84942285 84.97070312 877.74511719 C82.63451062 875.72391693 80.35511711 873.6466413 78.07226562 871.56542969 C73.75701986 867.67118351 69.31384808 863.97388244 64.79492188 860.31933594 C62.21561368 858.21088132 59.67516887 856.06711879 57.14453125 853.90112305 C50.79708209 848.47223396 44.30358592 843.28979047 37.63427734 838.26025391 C35.78851592 836.86781932 33.9480127 835.46859638 32.10742188 834.06933594 C-3.79425789 806.86569253 -41.90926443 783.24829912 -82.11523438 762.94042969 C-83.00549316 762.48990234 -83.89575195 762.039375 -84.81298828 761.57519531 C-97.16569168 755.37508406 -109.77733226 749.88570419 -122.55273438 744.62792969 C-123.25894928 744.3371051 -123.96516418 744.04628052 -124.69277954 743.74664307 C-145.82877904 735.06840796 -167.09516772 727.51646072 -189.20605469 721.70654297 C-191.11045936 721.20503056 -193.01352273 720.69839001 -194.91503906 720.18603516 C-231.4608845 710.35465192 -268.31443706 705.69361598 -306.11523438 704.94042969 C-303.69393107 702.51912638 -302.3141206 702.41202465 -298.99023438 701.81542969 C-297.62511719 701.5640625 -297.62511719 701.5640625 -296.23242188 701.30761719 C-295.53375 701.18644531 -294.83507812 701.06527344 -294.11523438 700.94042969 C-294.11523438 701.27042969 -294.11523438 701.60042969 -294.11523438 701.94042969 C-293.44190063 701.93598846 -292.76856689 701.93154724 -292.0748291 701.92697144 C-285.60722175 701.88624463 -279.13965214 701.85612482 -272.67194366 701.83680534 C-269.34990195 701.82653795 -266.02805096 701.81154251 -262.70605469 701.78955078 C-218.23272295 701.50295236 -175.33403583 707.81865271 -133.11523438 721.94042969 C-132.41366211 722.17342773 -131.71208984 722.40642578 -130.98925781 722.64648438 C-80.10537187 739.67181478 -34.9694207 766.43692941 7.34960938 798.99609375 C9.73925454 800.82883008 12.13774667 802.64904873 14.54101562 804.46386719 C22.18075699 810.24147447 29.64432363 816.14958783 36.90820312 822.39355469 C39.70230773 824.78431086 42.53110303 827.12131484 45.38476562 829.44042969 C51.62327819 834.52332777 57.75944429 839.72224093 63.88476562 844.94042969 C64.47225586 845.44010254 65.05974609 845.93977539 65.66503906 846.45458984 C72.41203717 852.19628888 79.10463488 857.98228344 85.66601562 863.93652344 C87.67784956 865.75354951 89.71136996 867.53987361 91.75976562 869.31542969 C95.72962765 872.77097761 99.59818805 876.33426939 103.46899414 879.8996582 C106.17876841 882.39125282 108.907107 884.85181279 111.69726562 887.25292969 C116.40161294 891.3234281 120.90815809 895.60929265 125.4309082 899.87915039 C132.12990227 906.88108647 132.12990227 906.88108647 140.63476562 910.44042969 C141.70726562 910.27542969 142.77976562 910.11042969 143.88476562 909.94042969 C146.42481948 906.13034891 146.24579882 904.48944797 145.88476562 899.94042969 C144.04065947 892.13555833 140.87203045 884.83935078 137.69726562 877.50292969 C136.70752873 875.19049541 135.7179464 872.87799497 134.72851562 870.56542969 C134.24382813 869.4375 133.75914062 868.30957031 133.25976562 867.14746094 C131.38491325 862.77458082 129.53859836 858.39000387 127.69726562 854.00292969 C127.05804929 852.4833536 126.41872745 850.96382189 125.77929688 849.44433594 C125.31257568 848.33469482 125.31257568 848.33469482 124.83642578 847.20263672 C123.18688091 843.28147644 121.53572029 839.36099654 119.88476562 835.44042969 C119.21809169 833.85709942 118.55142501 832.27376609 117.88476562 830.69042969 C117.55476563 829.90667969 117.22476563 829.12292969 116.88476562 828.31542969 C115.38476562 824.75292969 115.38476562 824.75292969 113.88476562 821.19042969 C113.57308945 820.45020065 113.26141327 819.70997162 112.94029236 818.9473114 C112.27603105 817.36968719 111.61177457 815.79206093 110.94752502 814.21443176 C109.30035093 810.30232393 107.6530979 806.39024938 106.00561523 802.47827148 C103.03744874 795.43001636 100.06965198 788.38160898 97.1060791 781.3314209 C89.77621327 763.89419117 82.41811177 746.46947503 75.00976562 729.06542969 C70.07949685 717.48295108 65.17149263 705.89266985 60.34814453 694.26513672 C57.3925336 687.14313704 54.39496605 680.03951611 51.38476562 672.94042969 C47.96252325 664.86790447 44.5617087 656.78721466 41.19726562 648.69042969 C34.84556456 633.40978688 28.40825927 618.1651708 21.98144531 602.91601562 C18.94467073 595.71013966 15.91066374 588.50309855 12.87652588 581.29611206 C11.22314256 577.36890695 9.56956947 573.44178175 7.91601562 569.51464844 C7.25065013 567.93440794 6.58528555 566.35416705 5.91992188 564.77392578 C5.58686035 563.98290466 5.25379883 563.19188354 4.91064453 562.37689209 C-20.09798177 502.98140462 -45.10660807 443.58591715 -70.11523438 384.19042969 C-70.44528976 383.40654877 -70.77534515 382.62266785 -71.11540222 381.81503296 C-71.78151122 380.23302282 -72.4476184 378.65101192 -73.11372375 377.06900024 C-74.7889078 373.09041573 -76.46412425 369.11184487 -78.1394043 365.13330078 C-81.03812072 358.24919396 -83.93672417 351.36504001 -86.8339386 344.4803009 C-95.14806033 324.72321805 -103.47403513 304.97117101 -111.81542969 285.22558594 C-112.61849606 283.32454701 -113.42155593 281.42350533 -114.22460938 279.52246094 C-114.62407776 278.57682281 -115.02354614 277.63118469 -115.43511963 276.65689087 C-118.35819027 269.73601583 -121.27652902 262.81315544 -124.19335938 255.88964844 C-128.15951916 246.47593312 -132.1345967 237.06602994 -136.11816406 227.65966797 C-137.34341672 224.76616661 -138.56603625 221.87159886 -139.78417969 218.97509766 C-150.44101412 191.40250387 -150.44101412 191.40250387 -172.11523438 172.94042969 C-172.81390625 172.62074219 -173.51257813 172.30105469 -174.23242188 171.97167969 C-182.25914383 168.7962732 -191.29332456 168.59957111 -199.42773438 171.50292969 C-204.45136788 173.81526666 -208.25363269 177.02845928 -212.11523438 180.94042969 C-212.62570312 181.41738281 -213.13617187 181.89433594 -213.66210938 182.38574219 C-222.13321818 191.08456897 -226.37326568 204.29567145 -230.70385742 215.41455078 C-233.85870554 223.45497477 -237.31687659 231.35250018 -240.80273438 239.25292969 C-245.55069781 250.02420982 -250.20939482 260.82596593 -254.74023438 271.69042969 C-255.82851466 274.29861177 -256.91698442 276.90671456 -258.00585938 279.51464844 C-258.4031147 280.46611252 -258.4031147 280.46611252 -258.80839539 281.4367981 C-261.33256193 287.4745947 -263.90514113 293.49102062 -266.49023438 299.50292969 C-272.44064341 313.34276037 -278.34094061 327.20374494 -284.24023438 341.06542969 C-291.68445063 358.55683488 -299.15243796 376.03768048 -306.65396118 393.50457764 C-312.30674496 406.67131798 -317.8864581 419.86751523 -323.43054199 433.08035278 C-328.33560582 444.76691324 -333.33090626 456.41035852 -338.39379883 468.02929688 C-342.49010376 477.44845168 -346.47420414 486.9108436 -350.42855835 496.3901062 C-354.41460099 505.94082667 -358.48142218 515.45278031 -362.61523438 524.94042969 C-367.63068154 536.45236898 -372.53409393 548.00732401 -377.36328125 559.59863281 C-381.87214288 570.41160585 -386.48895774 581.17724302 -391.11523438 591.94042969 C-403.55773878 620.86722921 -403.55773878 620.86722921 -415.80273438 649.87792969 C-420.24972535 660.52596095 -424.75173876 671.14891502 -429.30273438 681.75292969 C-429.61042755 682.46992035 -429.91812073 683.18691101 -430.23513794 683.92562866 C-432.17919602 688.45464518 -434.12493222 692.98293964 -436.07110596 697.51104736 C-439.4630878 705.40319988 -442.85331336 713.29610386 -446.24023438 721.19042969 C-446.6234082 722.08348816 -447.00658203 722.97654663 -447.40136719 723.89666748 C-452.25073064 735.20356506 -457.06135124 746.52533524 -461.80273438 757.87792969 C-466.24992958 768.52587694 -470.75173774 779.14891265 -475.30273438 789.75292969 C-475.61042755 790.46992035 -475.91812073 791.18691101 -476.23513794 791.92562866 C-478.17919602 796.45464518 -480.12493222 800.98293964 -482.07110596 805.51104736 C-485.46308782 813.40319995 -488.85321504 821.296146 -492.24023438 829.19042969 C-492.62274353 830.08182648 -493.00525269 830.97322327 -493.39935303 831.89163208 C-498.5626355 843.92867614 -503.67074909 855.98701662 -508.71392822 868.0748291 C-512.86658938 878.02420395 -517.12299046 887.92485975 -521.42910767 897.80847168 C-525.85224722 907.96512602 -530.16469873 918.16440601 -534.42773438 928.38919067 C-538.14470736 937.30062783 -541.93833672 946.17408315 -545.80493164 955.02157593 C-570.03748606 1003.86584476 -570.03748606 1003.86584476 -569.11523438 1055.94042969 C-559.71418703 1078.26144852 -543.75456997 1096.23889148 -523.36523438 1109.19042969 C-522.37080322 1109.82956299 -521.37637207 1110.46869629 -520.35180664 1111.12719727 C-503.04924302 1122.1699625 -485.25992484 1132.3507596 -467.11523438 1141.94042969 C-466.22803711 1142.41270996 -465.34083984 1142.88499023 -464.42675781 1143.37158203 C-416.79512335 1168.55126266 -364.8722366 1186.31415142 -312.11523438 1196.94042969 C-311.00293457 1197.16569336 -309.89063477 1197.39095703 -308.74462891 1197.62304688 C-301.21452573 1199.13619073 -293.67070998 1200.5602635 -286.11523438 1201.94042969 C-285.31875488 1202.09108887 -284.52227539 1202.24174805 -283.70166016 1202.39697266 C-272.39464965 1204.52031968 -261.00523021 1205.58277923 -249.55273438 1206.56542969 C-248.8237796 1206.62804993 -248.09482483 1206.69067017 -247.34378052 1206.75518799 C-242.27002873 1207.18532797 -237.19414688 1207.5764732 -232.11523438 1207.94042969 C-231.42741882 1207.99062256 -230.73960327 1208.04081543 -230.03094482 1208.0925293 C-215.820886 1209.0985956 -201.60603814 1209.18120699 -187.36523438 1209.19042969 C-186.13756348 1209.1917691 -184.90989258 1209.19310852 -183.64501953 1209.19448853 C-162.32344634 1209.1894703 -141.30925148 1208.19126716 -120.11523438 1205.94042969 C-118.05798718 1205.74464936 -116.00069982 1205.5492902 -113.94335938 1205.35449219 C-79.97042586 1201.85663168 -45.65391191 1194.20771947 -13.11523438 1183.94042969 C-11.9407373 1183.57256348 -10.76624023 1183.20469727 -9.55615234 1182.82568359 C33.81975985 1169.22025944 75.56720223 1151.88182221 114.88476562 1128.94042969 C116.32311768 1128.10777588 116.32311768 1128.10777588 117.79052734 1127.25830078 C129.41849505 1120.52405472 140.8518071 1113.6145293 151.88476562 1105.94042969 C152.91875488 1105.22306641 152.91875488 1105.22306641 153.97363281 1104.49121094 C175.48129522 1089.53103092 196.22551947 1073.62676746 215.61523438 1055.99121094 C217.7212898 1054.0881488 219.85797032 1052.22889148 222.00976562 1050.37792969 C225.38261599 1047.4453108 228.53090814 1044.34263923 231.63476562 1041.12792969 C233.59803552 1039.21919507 235.60845896 1037.44477248 237.68554688 1035.66308594 C241.75132913 1032.12938062 245.42876434 1028.3402005 249.07226562 1024.37792969 C249.71373535 1023.68610596 250.35520508 1022.99428223 251.01611328 1022.28149414 C252.33396962 1020.8599041 253.65038482 1019.43697668 254.96533203 1018.01269531 C256.77645434 1016.05736509 258.59920951 1014.11385327 260.42773438 1012.17480469 C266.88302358 1005.31588472 273.00152289 998.30177638 278.88476562 990.94042969 C279.88964004 989.71382718 280.89626857 988.48866038 281.90429688 987.26464844 C299.82560194 965.46977705 316.38402766 942.63048814 330.55712891 918.21044922 C331.78871214 916.10466383 333.04621323 914.01798102 334.31835938 911.93652344 C374.77200665 845.37196114 400.64765221 768.86833872 411.88476562 691.94042969 C412.01834473 691.03260742 412.15192383 690.12478516 412.28955078 689.18945312 C413.30478489 682.12162108 414.12654592 675.04003285 414.88476562 667.94042969 C415.02301758 666.68891113 415.16126953 665.43739258 415.30371094 664.14794922 C419.48162252 625.57911362 419.26664914 586.72690924 415.63476562 548.12792969 C415.53252686 547.03545929 415.43028809 545.94298889 415.32495117 544.81741333 C413.81451436 529.08225608 411.55419892 513.51819581 408.88476562 497.94042969 C408.55847168 496.01662476 408.55847168 496.01662476 408.22558594 494.05395508 C403.29271391 465.78293044 395.83223043 438.18452975 386.88476562 410.94042969 C386.44680664 409.59779053 386.44680664 409.59779053 386 408.22802734 C379.31135738 387.90269509 371.51932761 367.31499456 361.97998047 348.14990234 C360.58315648 345.33196719 359.2148823 342.50047519 357.84179688 339.67089844 C350.64272939 324.94780911 342.95596952 310.64503316 334.48828125 296.60058594 C333.00971601 294.14771644 331.54688258 291.68622149 330.08789062 289.22167969 C315.5242353 264.80173209 298.8152527 241.60548442 280.50585938 219.86572266 C278.97990757 218.05342508 277.4624926 216.2343516 275.94726562 214.41308594 C270.24597284 207.58553777 264.34575119 200.97224785 258.28955078 194.45849609 C256.86832376 192.92266195 255.45923577 191.37647124 254.05273438 189.82714844 C244.50718982 179.34040322 234.7408932 168.82466076 223.89257812 159.66699219 C221.75496177 157.82880847 219.68779183 155.92217198 217.62207031 154.00390625 C212.46587388 149.21809822 207.19748955 144.6523955 201.71289062 140.24121094 C199.20659987 138.2022534 196.74882244 136.11667868 194.30175781 134.00732422 C186.44921864 127.25643464 178.23590064 121.0580994 169.88476562 114.94042969 C168.80702881 114.14717285 168.80702881 114.14717285 167.70751953 113.33789062 C145.80025917 97.23544909 123.05459833 82.24269764 99.18310547 69.19921875 C96.49076536 67.72463774 93.80750126 66.23400363 91.12304688 64.74511719 C81.09196401 59.21356703 71.11665812 53.86586194 60.51757812 49.50292969 C57.70020184 48.29115494 55.02512664 47.0079089 52.30273438 45.60839844 C46.04598632 42.44815041 39.58301483 39.83799392 33.07226562 37.25292969 C32.42237671 36.9944223 31.77248779 36.73591492 31.10290527 36.46957397 C-22.62110361 15.16396122 -78.42302475 2.71371967 -136.11523438 -1.05957031 C-136.75456909 -1.10193817 -137.39390381 -1.14430603 -138.0526123 -1.18795776 C-151.65727651 -2.06536909 -165.23492874 -2.26015667 -178.86523438 -2.24707031 C-180.4733046 -2.24666245 -180.4733046 -2.24666245 -182.11386108 -2.24624634 C-199.86447785 -2.22563542 -217.42983001 -1.670543 -235.11523438 -0.05957031 C-236.24944824 0.03694824 -237.38366211 0.1334668 -238.55224609 0.23291016 C-325.73779297 7.78246199 -411.76702957 37.60605062 -502.11523438 91.94042969 C-502.98728516 92.50616699 -503.85933594 93.0719043 -504.7578125 93.65478516 C-531.08102486 110.81273358 -556.37066033 129.48577329 -579.60351562 150.67480469 C-581.68676597 152.55394185 -583.79063321 154.40118158 -585.90820312 156.24121094 C-590.06018855 159.86710689 -594.10120303 163.6004473 -598.11523438 167.37792969 C-598.81511475 168.03607666 -599.51499512 168.69422363 -600.23608398 169.37231445 C-606.79975191 175.5610031 -613.19537579 181.77261489 -619.07617188 188.62011719 C-621.15065539 190.98073636 -623.27976792 193.27969136 -625.42480469 195.57592773 C-631.26174236 201.82887922 -636.77829929 208.25135165 -642.11523438 214.94042969 C-643.03614622 216.07012177 -643.95807549 217.19898501 -644.88085938 218.32714844 C-673.44700786 253.40239941 -696.65273421 292.44199927 -717.33398438 332.56933594 C-719.03287978 335.86530939 -720.75401177 339.14557832 -722.52148438 342.40527344 C-735.85404966 367.05453126 -747.48989295 392.62419771 -757.11523438 418.94042969 C-757.42638184 419.78943848 -757.7375293 420.63844727 -758.05810547 421.51318359 C-762.5994315 434.08334449 -765.89858714 446.97860322 -769.11523438 459.94042969 C-769.39729736 461.05901367 -769.39729736 461.05901367 -769.68505859 462.20019531 C-774.38941287 480.91159881 -777.89260859 499.86436654 -780.30273438 519.00292969 C-780.53476562 520.82546265 -780.53476562 520.82546265 -780.77148438 522.68481445 C-783.34000178 544.00211297 -784.49656493 565.2217077 -784.42773438 586.69042969 C-784.42591156 587.88287292 -784.42408875 589.07531616 -784.42221069 590.30389404 C-784.29937288 638.36108764 -777.89275619 685.92511204 -768.11523438 732.94042969 C-767.45523437 732.61042969 -766.79523438 732.28042969 -766.11523438 731.94042969 C-765.95442383 732.69960693 -765.79361328 733.45878418 -765.62792969 734.2409668 C-764.05304291 741.66438994 -762.46325278 749.08446094 -760.85839844 756.50146484 C-760.42527088 758.50574698 -759.99399366 760.51043396 -759.56738281 762.51611328 C-753.62580852 790.35068586 -744.45654388 819.34009568 -732.97851562 845.42089844 C-732.11523438 847.94042969 -732.11523438 847.94042969 -733.11523438 850.94042969 C-739.5325428 838.00636504 -745.51926965 824.93447527 -751.11523438 811.62792969 C-751.53317764 810.64093582 -751.53317764 810.64093582 -751.95956421 809.63400269 C-754.80746227 802.89431735 -757.48816018 796.19166387 -759.47338867 789.14038086 C-760.28069078 786.37332141 -761.29044539 783.71211508 -762.32470703 781.0234375 C-777.37773435 741.35931488 -786.06074129 698.990021 -791.11523438 656.94042969 C-791.19880188 656.25382263 -791.28236938 655.56721558 -791.36846924 654.85980225 C-796.84402905 609.18598303 -796.53340341 560.61094686 -791.11523438 514.94042969 C-790.98087982 513.80655823 -790.98087982 513.80655823 -790.84381104 512.64978027 C-788.70258654 494.84331828 -785.94279584 477.21636013 -781.77880859 459.75976562 C-781.06189985 456.71382663 -780.38491045 453.66063726 -779.71289062 450.60449219 C-769.81950606 405.95980613 -753.94615179 363.0937782 -734.11523438 321.94042969 C-733.41164795 320.46751465 -733.41164795 320.46751465 -732.69384766 318.96484375 C-725.59874986 304.16146001 -717.55305658 290.01504461 -709.11523438 275.94042969 C-708.62522949 275.11526855 -708.13522461 274.29010742 -707.63037109 273.43994141 C-700.60104576 261.60457648 -693.031901 250.19963705 -685.11523438 238.94042969 C-684.57608398 238.17166504 -684.03693359 237.40290039 -683.48144531 236.61083984 C-676.21113653 226.2824547 -668.56279765 216.35948998 -660.5078125 206.6328125 C-658.6581036 204.38488436 -656.85485885 202.10159585 -655.05273438 199.81542969 C-641.33004205 182.66206429 -626.17571215 166.91767807 -610.67773438 151.37792969 C-610.11552185 150.81303833 -609.55330933 150.24814697 -608.97406006 149.6661377 C-602.86767847 143.53768566 -596.70959093 137.54853062 -590.11523438 131.94042969 C-588.50755065 130.48597452 -586.90283723 129.02822074 -585.30273438 127.56542969 C-580.05342461 122.83466876 -574.61899492 118.37045917 -569.11523438 113.94042969 C-567.9820974 113.01504561 -566.84929989 112.08924576 -565.71679688 111.16308594 C-500.04922567 57.71811604 -421.88351317 17.82584085 -340.11523438 -4.05957031 C-339.10638184 -4.33124023 -338.0975293 -4.60291016 -337.05810547 -4.8828125 C-309.89739234 -12.12401798 -282.08335407 -18.0282229 -254.11523438 -21.05957031 C-252.35518066 -21.25244629 -252.35518066 -21.25244629 -250.55957031 -21.44921875 C-246.60027073 -21.87511152 -242.63965452 -22.28400977 -238.67773438 -22.68457031 C-237.47656982 -22.80799805 -236.27540527 -22.93142578 -235.0378418 -23.05859375 C-157.4760148 -30.51179653 -74.32443428 -24.42849686 0 0 Z " fill="#CBCBCB" transform="translate(1187.115234375,397.0595703125)"/>
<path d="M0 0 C0.33 0 0.66 0 1 0 C1.33965474 2.18652739 1.67142477 4.37428025 2 6.5625 C2.185625 7.78066406 2.37125 8.99882813 2.5625 10.25390625 C2.98555077 13.87627848 3.07501425 17.35712046 3 21 C1 20 1 20 0.33203125 18.06640625 C-0.97268812 11.7782475 -0.99791587 6.33811428 0 0 Z " fill="#F5F5F5" transform="translate(417,1110)"/>
<path d="M0 0 C1.78016355 2.67024533 2.97163019 5.05030861 4.1875 8 C4.55230469 8.86625 4.91710937 9.7325 5.29296875 10.625 C6 13 6 13 5 16 C3.96455826 14.09118566 2.94709915 12.17260796 1.9375 10.25 C1.36902344 9.18265625 0.80054688 8.1153125 0.21484375 7.015625 C-1.01044806 3.97406463 -1.25348607 2.95106435 0 0 Z " fill="#A5A5A5" transform="translate(449,1232)"/>
<path d="M0 0 C0 0.66 0 1.32 0 2 C-3.47325181 3.1577506 -6.36067448 3.06866652 -10 3 C-6.84916414 -0.15083586 -4.41812253 0 0 0 Z " fill="#D1D1D1" transform="translate(891,1099)"/>
<path d="M0 0 C0.33 0 0.66 0 1 0 C1.33 3.3 1.66 6.6 2 10 C1.01 10 0.02 10 -1 10 C-0.67 6.7 -0.34 3.4 0 0 Z " fill="#E4E4E4" transform="translate(417,1110)"/>
</svg>
